{
  "accessors": [
    {
      "bufferView": 2,
      "componentType": 5126,
      "count": 1240,
      "max": [
        2.7969536781311035,
        8.706578254699707,
        0.04584825038909912
      ],
      "min": [
        -2.7969536781311035,
        -3.7648448944091797,
        -2.2979652881622314
      ],
      "type": "VEC3"
    },
    {
      "bufferView": 2,
      "byteOffset": 14880,
      "componentType": 5126,
      "count": 1240,
      "max": [
        0.999957799911499,
        0.912033200263977,
        0.9999914169311523
      ],
      "min": [
        -0.999957799911499,
        -0.9968687891960144,
        -0.735722005367279
      ],
      "type": "VEC3"
    },
    {
      "bufferView": 1,
      "componentType": 5126,
      "count": 1240,
      "max": [
        1.0047178268432617,
        1.0
      ],
      "min": [
        0.0,
        -0.005926120560616255
      ],
      "type": "VEC2"
    },
    {
      "bufferView": 0,
      "componentType": 5125,
      "count": 10200,
      "type": "SCALAR"
    },
    {
      "bufferView": 2,
      "byteOffset": 29760,
      "componentType": 5126,
      "count": 148,
      "max": [
        2.8029561042785645,
        3.4999442100524902,
        -0.7253234386444092
      ],
      "min": [
        -2.8029561042785645,
        -1.7980364561080933,
        -1.7759708166122437
      ],
      "type": "VEC3"
    },
    {
      "bufferView": 2,
      "byteOffset": 31536,
      "componentType": 5126,
      "count": 148,
      "max": [
        0.9997811317443848,
        0.22797881066799164,
        0.6545650959014893
      ],
      "min": [
        -0.9997811317443848,
        -0.06515845656394958,
        -0.4077410101890564
      ],
      "type": "VEC3"
    },
    {
      "bufferView": 1,
      "byteOffset": 9920,
      "componentType": 5126,
      "count": 148,
      "max": [
        1.0973200798034668,
        0.0
      ],
      "min": [
        0.0,
        0.0
      ],
      "type": "VEC2"
    },
    {
      "bufferView": 0,
      "byteOffset": 40800,
      "componentType": 5125,
      "count": 444,
      "type": "SCALAR"
    },
    {
      "bufferView": 2,
      "byteOffset": 33312,
      "componentType": 5126,
      "count": 632,
      "max": [
        1.6015187501907349,
        -3.521649122238159,
        -1.0710232257843018
      ],
      "min": [
        -1.6015187501907349,
        -3.826521158218384,
        -2.03167724609375
      ],
      "type": "VEC3"
    },
    {
      "bufferView": 2,
      "byteOffset": 40896,
      "componentType": 5126,
      "count": 632,
      "max": [
        0.8370479345321655,
        0.9905885457992554,
        0.9855294823646545
      ],
      "min": [
        -0.8370479345321655,
        -0.9957289695739746,
        -0.9328452348709106
      ],
      "type": "VEC3"
    },
    {
      "bufferView": 1,
      "byteOffset": 11104,
      "componentType": 5126,
      "count": 632,
      "max": [
        0.23797792196273804,
        0.0
      ],
      "min": [
        0.1758381873369217,
        0.0
      ],
      "type": "VEC2"
    },
    {
      "bufferView": 0,
      "byteOffset": 42576,
      "componentType": 5125,
      "count": 4212,
      "type": "SCALAR"
    },
    {
      "bufferView": 2,
      "byteOffset": 48480,
      "componentType": 5126,
      "count": 78,
      "max": [
        1.5486887693405151,
        -3.5374412536621094,
        -1.1916687488555908
      ],
      "min": [
        -1.5486887693405151,
        -3.766468048095703,
        -2.062864303588867
      ],
      "type": "VEC3"
    },
    {
      "bufferView": 2,
      "byteOffset": 49416,
      "componentType": 5126,
      "count": 78,
      "max": [
        0.4089266359806061,
        -0.6454197764396667,
        0.5718715786933899
      ],
      "min": [
        -0.4089266359806061,
        -0.9887827038764954,
        -0.6451451182365417
      ],
      "type": "VEC3"
    },
    {
      "bufferView": 1,
      "byteOffset": 16160,
      "componentType": 5126,
      "count": 78,
      "max": [
        1.0000001192092896,
        0.0
      ],
      "min": [
        0.0,
        0.0
      ],
      "type": "VEC2"
    },
    {
      "bufferView": 0,
      "byteOffset": 59424,
      "componentType": 5125,
      "count": 240,
      "type": "SCALAR"
    },
    {
      "bufferView": 2,
      "byteOffset": 50352,
      "componentType": 5126,
      "count": 64,
      "max": [
        2.1329147815704346,
        5.506891250610352,
        0.08619070053100586
      ],
      "min": [
        -2.1329147815704346,
        0.9511532783508301,
        -1.5434106588363647
      ],
      "type": "VEC3"
    },
    {
      "bufferView": 2,
      "byteOffset": 51120,
      "componentType": 5126,
      "count": 64,
      "max": [
        0.9926874041557312,
        0.9925431609153748,
        0.7816136479377747
      ],
      "min": [
        -0.9926874041557312,
        -0.9925506711006165,
        0.11990851163864136
      ],
      "type": "VEC3"
    },
    {
      "bufferView": 1,
      "byteOffset": 16784,
      "componentType": 5126,
      "count": 64,
      "max": [
        1.0,
        1.0
      ],
      "min": [
        0.0,
        0.0
      ],
      "type": "VEC2"
    },
    {
      "bufferView": 0,
      "byteOffset": 60384,
      "componentType": 5125,
      "count": 282,
      "type": "SCALAR"
    },
    {
      "bufferView": 2,
      "byteOffset": 51888,
      "componentType": 5126,
      "count": 166,
      "max": [
        1.946364402770996,
        4.597234725952148,
        1.2165411710739136
      ],
      "min": [
        -1.946364402770996,
        1.6854252815246582,
        0.2718769311904907
      ],
      "type": "VEC3"
    },
    {
      "bufferView": 2,
      "byteOffset": 53880,
      "componentType": 5126,
      "count": 166,
      "max": [
        1.0,
        0.9802855849266052,
        0.9736462831497192
      ],
      "min": [
        -0.9998528957366943,
        -0.9781626462936401,
        -0.9995920658111572
      ],
      "type": "VEC3"
    },
    {
      "bufferView": 1,
      "byteOffset": 17296,
      "componentType": 5126,
      "count": 166,
      "max": [
        0.0,
        0.0
      ],
      "min": [
        0.0,
        0.0
      ],
      "type": "VEC2"
    },
    {
      "bufferView": 0,
      "byteOffset": 61512,
      "componentType": 5125,
      "count": 1026,
      "type": "SCALAR"
    },
    {
      "bufferView": 2,
      "byteOffset": 55872,
      "componentType": 5126,
      "count": 603,
      "max": [
        0.6653178334236145,
        -3.4884514808654785,
        -1.5116651058197021
      ],
      "min": [
        -0.6653177738189697,
        -3.799971580505371,
        -2.299917697906494
      ],
      "type": "VEC3"
    },
    {
      "bufferView": 2,
      "byteOffset": 63108,
      "componentType": 5126,
      "count": 603,
      "max": [
        0.999508261680603,
        0.9861956834793091,
        0.8819459080696106
      ],
      "min": [
        -0.999508261680603,
        -0.9999995231628418,
        -0.9990782737731934
      ],
      "type": "VEC3"
    },
    {
      "bufferView": 1,
      "byteOffset": 18624,
      "componentType": 5126,
      "count": 603,
      "max": [
        0.6793540120124817,
        0.0
      ],
      "min": [
        0.0,
        0.0
      ],
      "type": "VEC2"
    },
    {
      "bufferView": 0,
      "byteOffset": 65616,
      "componentType": 5125,
      "count": 2640,
      "type": "SCALAR"
    },
    {
      "bufferView": 2,
      "byteOffset": 70344,
      "componentType": 5126,
      "count": 60,
      "max": [
        2.066710948944092,
        2.1297948360443115,
        0.8410272598266602
      ],
      "min": [
        -2.066710948944092,
        0.9511532783508301,
        -0.2009497731924057
      ],
      "type": "VEC3"
    },
    {
      "bufferView": 2,
      "byteOffset": 71064,
      "componentType": 5126,
      "count": 60,
      "max": [
        0.9480211734771729,
        -0.013519836589694023,
        0.8484039306640625
      ],
      "min": [
        -0.9480211734771729,
        -0.9392221570014954,
        0.2677774131298065
      ],
      "type": "VEC3"
    },
    {
      "bufferView": 1,
      "byteOffset": 23448,
      "componentType": 5126,
      "count": 60,
      "max": [
        1.0456289052963257,
        1.0456289052963257
      ],
      "min": [
        0.0,
        0.0
      ],
      "type": "VEC2"
    },
    {
      "bufferView": 0,
      "byteOffset": 76176,
      "componentType": 5125,
      "count": 180,
      "type": "SCALAR"
    },
    {
      "bufferView": 2,
      "byteOffset": 71784,
      "componentType": 5126,
      "count": 32,
      "max": [
        2.18324613571167,
        4.926486968994141,
        0.595378577709198
      ],
      "min": [
        -2.18324613571167,
        3.519280433654785,
        -0.49509572982788086
      ],
      "type": "VEC3"
    },
    {
      "bufferView": 2,
      "byteOffset": 72168,
      "componentType": 5126,
      "count": 32,
      "max": [
        0.9913206696510315,
        0.9732221364974976,
        0.8241090774536133
      ],
      "min": [
        -0.9913206696510315,
        -0.9278398752212524,
        -0.8551411032676697
      ],
      "type": "VEC3"
    },
    {
      "bufferView": 1,
      "byteOffset": 23928,
      "componentType": 5126,
      "count": 32,
      "max": [
        0.0,
        0.0
      ],
      "min": [
        0.0,
        0.0
      ],
      "type": "VEC2"
    },
    {
      "bufferView": 0,
      "byteOffset": 76896,
      "componentType": 5125,
      "count": 144,
      "type": "SCALAR"
    },
    {
      "bufferView": 2,
      "byteOffset": 72552,
      "componentType": 5126,
      "count": 28,
      "max": [
        2.0468692779541016,
        2.084184408187866,
        0.8174433708190918
      ],
      "min": [
        -2.0468692779541016,
        0.9681655764579773,
        -0.14514540135860443
      ],
      "type": "VEC3"
    },
    {
      "bufferView": 2,
      "byteOffset": 72888,
      "componentType": 5126,
      "count": 28,
      "max": [
        0.9523591995239258,
        -0.14960628747940063,
        0.6899856328964233
      ],
      "min": [
        -0.9523591995239258,
        -0.7781999111175537,
        0.2657632827758789
      ],
      "type": "VEC3"
    },
    {
      "bufferView": 1,
      "byteOffset": 24184,
      "componentType": 5126,
      "count": 28,
      "max": [
        1.0456289052963257,
        1.0456289052963257
      ],
      "min": [
        0.0,
        0.0
      ],
      "type": "VEC2"
    },
    {
      "bufferView": 0,
      "byteOffset": 77472,
      "componentType": 5125,
      "count": 78,
      "type": "SCALAR"
    },
    {
      "bufferView": 2,
      "byteOffset": 73224,
      "componentType": 5126,
      "count": 100,
      "max": [
        2.178509473800659,
        5.519628524780273,
        0.7719402313232422
      ],
      "min": [
        -2.178509473800659,
        2.030761480331421,
        -0.8553692698478699
      ],
      "type": "VEC3"
    },
    {
      "bufferView": 2,
      "byteOffset": 74424,
      "componentType": 5126,
      "count": 100,
      "max": [
        0.9544528126716614,
        0.9826953411102295,
        0.9959803223609924
      ],
      "min": [
        -0.9544528126716614,
        -0.9937727451324463,
        -0.9839996099472046
      ],
      "type": "VEC3"
    },
    {
      "bufferView": 1,
      "byteOffset": 24408,
      "componentType": 5126,
      "count": 100,
      "max": [
        0.0,
        0.0
      ],
      "min": [
        0.0,
        0.0
      ],
      "type": "VEC2"
    },
    {
      "bufferView": 0,
      "byteOffset": 77784,
      "componentType": 5125,
      "count": 540,
      "type": "SCALAR"
    },
    {
      "bufferView": 2,
      "byteOffset": 75624,
      "componentType": 5126,
      "count": 94,
      "max": [
        2.8154802322387695,
        3.475926637649536,
        -0.7482321858406067
      ],
      "min": [
        -2.8154802322387695,
        -1.7746764421463013,
        -1.7528102397918701
      ],
      "type": "VEC3"
    },
    {
      "bufferView": 2,
      "byteOffset": 76752,
      "componentType": 5126,
      "count": 94,
      "max": [
        0.9988799691200256,
        -0.017914529889822006,
        0.04559553414583206
      ],
      "min": [
        -0.9988799691200256,
        -0.06543295085430145,
        -0.04379446431994438
      ],
      "type": "VEC3"
    },
    {
      "bufferView": 1,
      "byteOffset": 25208,
      "componentType": 5126,
      "count": 94,
      "max": [
        0.9175525903701782,
        0.0
      ],
      "min": [
        0.0,
        0.0
      ],
      "type": "VEC2"
    },
    {
      "bufferView": 0,
      "byteOffset": 79944,
      "componentType": 5125,
      "count": 252,
      "type": "SCALAR"
    },
    {
      "bufferView": 2,
      "byteOffset": 77880,
      "componentType": 5126,
      "count": 22,
      "max": [
        2.8154802322387695,
        0.6623389720916748,
        -0.8111774325370789
      ],
      "min": [
        -2.8154802322387695,
        0.35772693157196045,
        -1.725008487701416
      ],
      "type": "VEC3"
    },
    {
      "bufferView": 2,
      "byteOffset": 78144,
      "componentType": 5126,
      "count": 22,
      "max": [
        0.7899386882781982,
        0.5962309241294861,
        0.1431979537010193
      ],
      "min": [
        -0.7899386882781982,
        0.5962308645248413,
        0.1431979238986969
      ],
      "type": "VEC3"
    },
    {
      "bufferView": 1,
      "byteOffset": 25960,
      "componentType": 5126,
      "count": 22,
      "max": [
        0.9175525903701782,
        0.0
      ],
      "min": [
        0.0,
        0.0
      ],
      "type": "VEC2"
    },
    {
      "bufferView": 0,
      "byteOffset": 80952,
      "componentType": 5125,
      "count": 48,
      "type": "SCALAR"
    },
    {
      "bufferView": 2,
      "byteOffset": 78408,
      "componentType": 5126,
      "count": 22,
      "max": [
        2.1189966201782227,
        -2.194307565689087,
        -0.3578927218914032
      ],
      "min": [
        -2.1189966201782227,
        -3.5799596309661865,
        -0.4841185212135315
      ],
      "type": "VEC3"
    },
    {
      "bufferView": 2,
      "byteOffset": 78672,
      "componentType": 5126,
      "count": 22,
      "max": [
        0.057009126991033554,
        -0.021546129137277603,
        0.9981412291526794
      ],
      "min": [
        -0.057009126991033554,
        -0.1955038458108902,
        0.9791062474250793
      ],
      "type": "VEC3"
    },
    {
      "bufferView": 1,
      "byteOffset": 26136,
      "componentType": 5126,
      "count": 22,
      "max": [
        1.0,
        0.0
      ],
      "min": [
        0.0,
        0.0
      ],
      "type": "VEC2"
    },
    {
      "bufferView": 0,
      "byteOffset": 81144,
      "componentType": 5125,
      "count": 54,
      "type": "SCALAR"
    },
    {
      "bufferView": 2,
      "byteOffset": 78936,
      "componentType": 5126,
      "count": 68,
      "max": [
        2.513375759124756,
        -3.4518964290618896,
        -0.5665765404701233
      ],
      "min": [
        -2.513375759124756,
        -3.681208610534668,
        -1.0196141004562378
      ],
      "type": "VEC3"
    },
    {
      "bufferView": 2,
      "byteOffset": 79752,
      "componentType": 5126,
      "count": 68,
      "max": [
        0.8703697323799133,
        -0.2215980440378189,
        0.4397169053554535
      ],
      "min": [
        -0.8703697323799133,
        -0.9855942726135254,
        -0.21293304860591888
      ],
      "type": "VEC3"
    },
    {
      "bufferView": 1,
      "byteOffset": 26312,
      "componentType": 5126,
      "count": 68,
      "max": [
        0.0,
        0.0
      ],
      "min": [
        0.0,
        0.0
      ],
      "type": "VEC2"
    },
    {
      "bufferView": 0,
      "byteOffset": 81360,
      "componentType": 5125,
      "count": 186,
      "type": "SCALAR"
    },
    {
      "bufferView": 2,
      "byteOffset": 80568,
      "componentType": 5126,
      "count": 172,
      "max": [
        2.743609666824341,
        -2.942222833633423,
        -1.5042368173599243
      ],
      "min": [
        -2.743609666824341,
        -3.987473964691162,
        -1.6952605247497559
      ],
      "type": "VEC3"
    },
    {
      "bufferView": 2,
      "byteOffset": 82632,
      "componentType": 5126,
      "count": 172,
      "max": [
        0.9674029350280762,
        0.9155520796775818,
        0.978037416934967
      ],
      "min": [
        -0.9674029350280762,
        -0.9438106417655945,
        -0.9410621523857117
      ],
      "type": "VEC3"
    },
    {
      "bufferView": 1,
      "byteOffset": 26856,
      "componentType": 5126,
      "count": 172,
      "max": [
        0.0,
        0.0
      ],
      "min": [
        0.0,
        0.0
      ],
      "type": "VEC2"
    },
    {
      "bufferView": 0,
      "byteOffset": 82104,
      "componentType": 5125,
      "count": 948,
      "type": "SCALAR"
    },
    {
      "bufferView": 2,
      "byteOffset": 84696,
      "componentType": 5126,
      "count": 152,
      "max": [
        2.5958070755004883,
        -3.1295692920684814,
        -1.2109016180038452
      ],
      "min": [
        -2.5958070755004883,
        -3.746004581451416,
        -2.030987024307251
      ],
      "type": "VEC3"
    },
    {
      "bufferView": 2,
      "byteOffset": 86520,
      "componentType": 5126,
      "count": 152,
      "max": [
        0.878226101398468,
        -0.3214263319969177,
        0.15226024389266968
      ],
      "min": [
        -0.878226101398468,
        -0.9994175434112549,
        -0.6029285788536072
      ],
      "type": "VEC3"
    },
    {
      "bufferView": 1,
      "byteOffset": 28232,
      "componentType": 5126,
      "count": 152,
      "max": [
        0.14675171673297882,
        0.0
      ],
      "min": [
        0.0,
        0.0
      ],
      "type": "VEC2"
    },
    {
      "bufferView": 0,
      "byteOffset": 85896,
      "componentType": 5125,
      "count": 450,
      "type": "SCALAR"
    },
    {
      "bufferView": 2,
      "byteOffset": 88344,
      "componentType": 5126,
      "count": 74,
      "max": [
        2.536109447479248,
        -3.254157066345215,
        -1.281150221824646
      ],
      "min": [
        -2.536109447479248,
        -3.7356958389282227,
        -1.9553683996200562
      ],
      "type": "VEC3"
    },
    {
      "bufferView": 2,
      "byteOffset": 89232,
      "componentType": 5126,
      "count": 74,
      "max": [
        0.3913739323616028,
        -0.8498631119728088,
        0.23856598138809204
      ],
      "min": [
        -0.3913739323616028,
        -0.8887704014778137,
        -0.45937225222587585
      ],
      "type": "VEC3"
    },
    {
      "bufferView": 1,
      "byteOffset": 29448,
      "componentType": 5126,
      "count": 74,
      "max": [
        0.01189366728067398,
        0.0
      ],
      "min": [
        0.0,
        0.0
      ],
      "type": "VEC2"
    },
    {
      "bufferView": 0,
      "byteOffset": 87696,
      "componentType": 5125,
      "count": 198,
      "type": "SCALAR"
    },
    {
      "bufferView": 2,
      "byteOffset": 90120,
      "componentType": 5126,
      "count": 68,
      "max": [
        1.66218101978302,
        -3.442927360534668,
        -1.9633548259735107
      ],
      "min": [
        -1.66218101978302,
        -3.6831040382385254,
        -2.1943485736846924
      ],
      "type": "VEC3"
    },
    {
      "bufferView": 2,
      "byteOffset": 90936,
      "componentType": 5126,
      "count": 68,
      "max": [
        0.9335240125656128,
        -0.23496533930301666,
        0.8932594656944275
      ],
      "min": [
        -0.9335240125656128,
        -0.40098991990089417,
        -0.9704869985580444
      ],
      "type": "VEC3"
    },
    {
      "bufferView": 1,
      "byteOffset": 30040,
      "componentType": 5126,
      "count": 68,
      "max": [
        1.0,
        0.0
      ],
      "min": [
        0.18924099206924438,
        0.0
      ],
      "type": "VEC2"
    },
    {
      "bufferView": 0,
      "byteOffset": 88488,
      "componentType": 5125,
      "count": 204,
      "type": "SCALAR"
    },
    {
      "bufferView": 2,
      "byteOffset": 91752,
      "componentType": 5126,
      "count": 68,
      "max": [
        1.6389771699905396,
        -3.514431953430176,
        -1.976128339767456
      ],
      "min": [
        -1.6389771699905396,
        -3.6831040382385254,
        -2.1747260093688965
      ],
      "type": "VEC3"
    },
    {
      "bufferView": 2,
      "byteOffset": 92568,
      "componentType": 5126,
      "count": 68,
      "max": [
        0.8634422421455383,
        0.9690113067626953,
        0.99249267578125
      ],
      "min": [
        -0.8634344339370728,
        -0.9795258641242981,
        -0.995334267616272
      ],
      "type": "VEC3"
    },
    {
      "bufferView": 1,
      "byteOffset": 30584,
      "componentType": 5126,
      "count": 68,
      "max": [
        0.9405271410942078,
        0.0
      ],
      "min": [
        0.2666206955909729,
        0.0
      ],
      "type": "VEC2"
    },
    {
      "bufferView": 0,
      "byteOffset": 89304,
      "componentType": 5125,
      "count": 384,
      "type": "SCALAR"
    },
    {
      "bufferView": 2,
      "byteOffset": 93384,
      "componentType": 5126,
      "count": 60,
      "max": [
        1.4708447456359863,
        -3.420370101928711,
        -1.2452877759933472
      ],
      "min": [
        -1.4708447456359863,
        -3.766468048095703,
        -1.990767002105713
      ],
      "type": "VEC3"
    },
    {
      "bufferView": 2,
      "byteOffset": 94104,
      "componentType": 5126,
      "count": 60,
      "max": [
        0.7208011150360107,
        -0.18409207463264465,
        0.9809993505477905
      ],
      "min": [
        -0.7208011150360107,
        -0.9805914759635925,
        -0.5902114510536194
      ],
      "type": "VEC3"
    },
    {
      "bufferView": 1,
      "byteOffset": 31128,
      "componentType": 5126,
      "count": 60,
      "max": [
        1.0,
        0.0
      ],
      "min": [
        0.0,
        0.0
      ],
      "type": "VEC2"
    },
    {
      "bufferView": 0,
      "byteOffset": 90840,
      "componentType": 5125,
      "count": 264,
      "type": "SCALAR"
    },
    {
      "bufferView": 2,
      "byteOffset": 94824,
      "componentType": 5126,
      "count": 138,
      "max": [
        2.536444902420044,
        -3.3088247776031494,
        -0.4769095778465271
      ],
      "min": [
        -2.536444902420044,
        -3.6906578540802,
        -1.049918532371521
      ],
      "type": "VEC3"
    },
    {
      "bufferView": 2,
      "byteOffset": 96480,
      "componentType": 5126,
      "count": 138,
      "max": [
        0.8664907217025757,
        -0.2634750008583069,
        0.91026371717453
      ],
      "min": [
        -0.8664907217025757,
        -0.9962367415428162,
        -0.21293304860591888
      ],
      "type": "VEC3"
    },
    {
      "bufferView": 1,
      "byteOffset": 31608,
      "componentType": 5126,
      "count": 138,
      "max": [
        0.7894821166992188,
        0.0
      ],
      "min": [
        0.0,
        0.0
      ],
      "type": "VEC2"
    },
    {
      "bufferView": 0,
      "byteOffset": 91896,
      "componentType": 5125,
      "count": 432,
      "type": "SCALAR"
    },
    {
      "bufferView": 2,
      "byteOffset": 98136,
      "componentType": 5126,
      "count": 34,
      "max": [
        0.28680920600891113,
        8.049745559692383,
        -0.35891464352607727
      ],
      "min": [
        -0.28680920600891113,
        7.417667388916016,
        -0.5372219085693359
      ],
      "type": "VEC3"
    },
    {
      "bufferView": 2,
      "byteOffset": 98544,
      "componentType": 5126,
      "count": 34,
      "max": [
        0.7301596403121948,
        0.9093195199966431,
        0.9852766990661621
      ],
      "min": [
        -0.7301596403121948,
        -0.8406069278717041,
        -0.9853083491325378
      ],
      "type": "VEC3"
    },
    {
      "bufferView": 1,
      "byteOffset": 32712,
      "componentType": 5126,
      "count": 34,
      "max": [
        0.0,
        0.0
      ],
      "min": [
        0.0,
        0.0
      ],
      "type": "VEC2"
    },
    {
      "bufferView": 0,
      "byteOffset": 93624,
      "componentType": 5125,
      "count": 192,
      "type": "SCALAR"
    },
    {
      "bufferView": 2,
      "byteOffset": 98952,
      "componentType": 5126,
      "count": 168,
      "max": [
        2.644388437271118,
        8.711211204528809,
        -0.893017053604126
      ],
      "min": [
        -2.644388437271118,
        7.671128273010254,
        -1.4968215227127075
      ],
      "type": "VEC3"
    },
    {
      "bufferView": 2,
      "byteOffset": 100968,
      "componentType": 5126,
      "count": 168,
      "max": [
        0.9739890694618225,
        0.8660469651222229,
        0.9205750226974487
      ],
      "min": [
        -0.9739890694618225,
        -0.9775329828262329,
        -0.9169900417327881
      ],
      "type": "VEC3"
    },
    {
      "bufferView": 1,
      "byteOffset": 32984,
      "componentType": 5126,
      "count": 168,
      "max": [
        0.0,
        0.0
      ],
      "min": [
        0.0,
        0.0
      ],
      "type": "VEC2"
    },
    {
      "bufferView": 0,
      "byteOffset": 94392,
      "componentType": 5125,
      "count": 972,
      "type": "SCALAR"
    },
    {
      "bufferView": 2,
      "byteOffset": 102984,
      "componentType": 5126,
      "count": 124,
      "max": [
        2.2019808292388916,
        8.553258895874023,
        -0.6580528616905212
      ],
      "min": [
        -2.2019808292388916,
        8.305425643920898,
        -0.9708338975906372
      ],
      "type": "VEC3"
    },
    {
      "bufferView": 2,
      "byteOffset": 104472,
      "componentType": 5126,
      "count": 124,
      "max": [
        0.9743003249168396,
        0.3195991814136505,
        0.9712494015693665
      ],
      "min": [
        -0.9743003249168396,
        0.1852216273546219,
        -0.9724335074424744
      ],
      "type": "VEC3"
    },
    {
      "bufferView": 1,
      "byteOffset": 34328,
      "componentType": 5126,
      "count": 124,
      "max": [
        0.0,
        0.0
      ],
      "min": [
        0.0,
        0.0
      ],
      "type": "VEC2"
    },
    {
      "bufferView": 0,
      "byteOffset": 98280,
      "componentType": 5125,
      "count": 372,
      "type": "SCALAR"
    },
    {
      "bufferView": 2,
      "byteOffset": 105960,
      "componentType": 5126,
      "count": 124,
      "max": [
        2.18379282951355,
        8.459010124206543,
        -0.6698413491249084
      ],
      "min": [
        -2.18379282951355,
        8.296523094177246,
        -0.947518527507782
      ],
      "type": "VEC3"
    },
    {
      "bufferView": 2,
      "byteOffset": 107448,
      "componentType": 5126,
      "count": 124,
      "max": [
        0.7964348793029785,
        0.9381730556488037,
        0.9620205163955688
      ],
      "min": [
        -0.7964348793029785,
        -0.9381594061851501,
        -0.9577250480651855
      ],
      "type": "VEC3"
    },
    {
      "bufferView": 1,
      "byteOffset": 35320,
      "componentType": 5126,
      "count": 124,
      "max": [
        0.0,
        0.0
      ],
      "min": [
        0.0,
        0.0
      ],
      "type": "VEC2"
    },
    {
      "bufferView": 0,
      "byteOffset": 99768,
      "componentType": 5125,
      "count": 696,
      "type": "SCALAR"
    },
    {
      "bufferView": 2,
      "byteOffset": 108936,
      "componentType": 5126,
      "count": 128,
      "max": [
        4.081302642822266,
        1.4723567962646484,
        0.0
      ],
      "min": [
        -4.6877970695495605,
        -5.113317489624023,
        -7.6523237228393555
      ],
      "type": "VEC3"
    },
    {
      "bufferView": 2,
      "byteOffset": 110472,
      "componentType": 5126,
      "count": 128,
      "max": [
        0.7587949633598328,
        0.9826487898826599,
        0.9918477535247803
      ],
      "min": [
        -0.979656457901001,
        -0.8194351196289063,
        -0.9781776666641235
      ],
      "type": "VEC3"
    },
    {
      "bufferView": 1,
      "byteOffset": 36312,
      "componentType": 5126,
      "count": 128,
      "max": [
        0.0,
        0.0
      ],
      "min": [
        0.0,
        0.0
      ],
      "type": "VEC2"
    },
    {
      "bufferView": 0,
      "byteOffset": 102552,
      "componentType": 5125,
      "count": 666,
      "type": "SCALAR"
    },
    {
      "bufferView": 2,
      "byteOffset": 112008,
      "componentType": 5126,
      "count": 192,
      "max": [
        4.081302642822266,
        0.8991522192955017,
        -1.6663399934768677
      ],
      "min": [
        -4.0389862060546875,
        -5.113317489624023,
        -7.6523237228393555
      ],
      "type": "VEC3"
    },
    {
      "bufferView": 2,
      "byteOffset": 114312,
      "componentType": 5126,
      "count": 192,
      "max": [
        0.9778032302856445,
        0.7228128910064697,
        0.7207720279693604
      ],
      "min": [
        -0.977803111076355,
        -0.7228139042854309,
        -0.7207671403884888
      ],
      "type": "VEC3"
    },
    {
      "bufferView": 1,
      "byteOffset": 37336,
      "componentType": 5126,
      "count": 192,
      "max": [
        0.0,
        0.0
      ],
      "min": [
        0.0,
        0.0
      ],
      "type": "VEC2"
    },
    {
      "bufferView": 0,
      "byteOffset": 105216,
      "componentType": 5125,
      "count": 372,
      "type": "SCALAR"
    },
    {
      "bufferView": 2,
      "byteOffset": 116616,
      "componentType": 5126,
      "count": 72,
      "max": [
        2.758315324783325,
        4.65969705581665,
        -2.0210981369018555
      ],
      "min": [
        -2.7416775226593018,
        -0.1637919694185257,
        -2.2643702030181885
      ],
      "type": "VEC3"
    },
    {
      "bufferView": 2,
      "byteOffset": 117480,
      "componentType": 5126,
      "count": 72,
      "max": [
        0.7328818440437317,
        0.7848625779151917,
        0.7328578233718872
      ],
      "min": [
        -0.7327630519866943,
        -0.780841588973999,
        -0.7377683520317078
      ],
      "type": "VEC3"
    },
    {
      "bufferView": 1,
      "byteOffset": 38872,
      "componentType": 5126,
      "count": 72,
      "max": [
        0.1613108366727829,
        0.0
      ],
      "min": [
        0.0,
        0.0
      ],
      "type": "VEC2"
    },
    {
      "bufferView": 0,
      "byteOffset": 106704,
      "componentType": 5125,
      "count": 408,
      "type": "SCALAR"
    }
  ],
  "asset": {
    "extras": {
      "author": "Plate Models (https://sketchfab.com/platemodels)",
      "license": "CC-BY-4.0 (http://creativecommons.org/licenses/by/4.0/)",
      "source": "https://sketchfab.com/3d-models/1962-corvette-c1-f52ad070ec12455981d4ba63f21bcf0e",
      "title": "1962 Corvette c1"
    },
    "generator": "Sketchfab-12.65.0",
    "version": "2.0"
  },
  "bufferViews": [
    {
      "buffer": 0,
      "byteLength": 108336,
      "name": "floatBufferViews",
      "target": 34963
    },
    {
      "buffer": 0,
      "byteLength": 39448,
      "byteOffset": 108336,
      "byteStride": 8,
      "name": "floatBufferViews",
      "target": 34962
    },
    {
      "buffer": 0,
      "byteLength": 118344,
      "byteOffset": 147784,
      "byteStride": 12,
      "name": "floatBufferViews",
      "target": 34962
    }
  ],
  "buffers": [
    {
      "byteLength": 266128,
      "uri": "scene.bin"
    }
  ],
  "extensionsUsed": [
    "KHR_materials_clearcoat",
    "KHR_materials_transmission"
  ],
  "materials": [
    {
      "doubleSided": true,
      "extensions": {
        "KHR_materials_clearcoat": {
          "clearcoatFactor": 1.0,
          "clearcoatRoughnessFactor": 0.04
        }
      },
      "name": "Material",
      "pbrMetallicRoughness": {
        "baseColorFactor": [
          0.8,
          0.0,
          0.0,
          1.0
        ],
        "metallicFactor": 0.0,
        "roughnessFactor": 0.9462159815558562
      }
    },
    {
      "doubleSided": true,
      "name": "Material.002",
      "pbrMetallicRoughness": {
        "roughnessFactor": 0.603078695681253
      }
    },
    {
      "doubleSided": true,
      "extensions": {
        "KHR_materials_transmission": {
          "transmissionFactor": 0.0
        }
      },
      "name": "Material.006",
      "pbrMetallicRoughness": {
        "baseColorFactor": [
          0.410939,
          0.410939,
          0.410939,
          1.0
        ],
        "roughnessFactor": 0.8949270075211742
      }
    },
    {
      "doubleSided": true,
      "name": "Material.007",
      "pbrMetallicRoughness": {
        "baseColorFactor": [
          0.7999999999999999,
          0.7751380000000001,
          0.20840699999999995,
          1.0
        ],
        "metallicFactor": 0.0,
        "roughnessFactor": 0.7993619542784262
      }
    },
    {
      "doubleSided": true,
      "name": "Material.001",
      "pbrMetallicRoughness": {
        "baseColorFactor": [
          0.2527695292606712,
          0.2527695292606712,
          0.2527695292606712,
          1.0
        ],
        "metallicFactor": 0.4516428627887322,
        "roughnessFactor": 0.47539505925128744
      }
    },
    {
      "doubleSided": true,
      "extensions": {
        "KHR_materials_clearcoat": {
          "clearcoatFactor": 1.0,
          "clearcoatRoughnessFactor": 0.04
        }
      },
      "name": "Material.003",
      "pbrMetallicRoughness": {
        "baseColorFactor": [
          0.8,
          0.8,
          0.8,
          1.0
        ],
        "metallicFactor": 0.0,
        "roughnessFactor": 0.43891402027129733
      }
    },
    {
      "doubleSided": true,
      "name": "Material.005",
      "pbrMetallicRoughness": {
        "baseColorFactor": [
          0.0146695,
          0.0146695,
          0.0146695,
          1.0
        ],
        "metallicFactor": 0.0,
        "roughnessFactor": 0.9967198000804067
      }
    },
    {
      "doubleSided": true,
      "extensions": {
        "KHR_materials_clearcoat": {
          "clearcoatFactor": 1.0,
          "clearcoatRoughnessFactor": 0.04
        }
      },
      "name": "Material.004",
      "pbrMetallicRoughness": {
        "baseColorFactor": [
          0.8,
          0.7662910000000001,
          0.670201,
          1.0
        ],
        "metallicFactor": 0.6036471918720245,
        "roughnessFactor": 0.8193295385448122
      }
    },
    {
      "doubleSided": true,
      "name": "Material.008",
      "pbrMetallicRoughness": {
        "baseColorFactor": [
          0.7999999999999999,
          0.0,
          0.0044170500000000066,
          1.0
        ],
        "roughnessFactor": 0.9461151330396057
      }
    }
  ],
  "meshes": [
    {
      "name": "body_Material_0",
      "primitives": [
        {
          "attributes": {
            "NORMAL": 1,
            "POSITION": 0,
            "TEXCOORD_0": 2
          },
          "indices": 3,
          "material": 0,
          "mode": 4
        }
      ]
    },
    {
      "name": "body 2 trim_Material.002_0",
      "primitives": [
        {
          "attributes": {
            "NORMAL": 5,
            "POSITION": 4,
            "TEXCOORD_0": 6
          },
          "indices": 7,
          "material": 1,
          "mode": 4
        }
      ]
    },
    {
      "name": "grill_Material.006_0",
      "primitives": [
        {
          "attributes": {
            "NORMAL": 9,
            "POSITION": 8,
            "TEXCOORD_0": 10
          },
          "indices": 11,
          "material": 2,
          "mode": 4
        }
      ]
    },
    {
      "name": "grill trim_Material.002_0",
      "primitives": [
        {
          "attributes": {
            "NORMAL": 13,
            "POSITION": 12,
            "TEXCOORD_0": 14
          },
          "indices": 15,
          "material": 1,
          "mode": 4
        }
      ]
    },
    {
      "name": "Interior_Material.007_0",
      "primitives": [
        {
          "attributes": {
            "NORMAL": 17,
            "POSITION": 16,
            "TEXCOORD_0": 18
          },
          "indices": 19,
          "material": 3,
          "mode": 4
        }
      ]
    },
    {
      "name": "soft top_Material_0",
      "primitives": [
        {
          "attributes": {
            "NORMAL": 21,
            "POSITION": 20,
            "TEXCOORD_0": 22
          },
          "indices": 23,
          "material": 0,
          "mode": 4
        }
      ]
    },
    {
      "name": "trim_Material.002_0",
      "primitives": [
        {
          "attributes": {
            "NORMAL": 25,
            "POSITION": 24,
            "TEXCOORD_0": 26
          },
          "indices": 27,
          "material": 1,
          "mode": 4
        }
      ]
    },
    {
      "name": "Wiindsheild trim_Material.002_0",
      "primitives": [
        {
          "attributes": {
            "NORMAL": 29,
            "POSITION": 28,
            "TEXCOORD_0": 30
          },
          "indices": 31,
          "material": 1,
          "mode": 4
        }
      ]
    },
    {
      "name": "window trim_Material.002_0",
      "primitives": [
        {
          "attributes": {
            "NORMAL": 33,
            "POSITION": 32,
            "TEXCOORD_0": 34
          },
          "indices": 35,
          "material": 1,
          "mode": 4
        }
      ]
    },
    {
      "name": "windsheild_Material.001_0",
      "primitives": [
        {
          "attributes": {
            "NORMAL": 37,
            "POSITION": 36,
            "TEXCOORD_0": 38
          },
          "indices": 39,
          "material": 4,
          "mode": 4
        }
      ]
    },
    {
      "name": "windows_Material.001_0",
      "primitives": [
        {
          "attributes": {
            "NORMAL": 41,
            "POSITION": 40,
            "TEXCOORD_0": 42
          },
          "indices": 43,
          "material": 4,
          "mode": 4
        }
      ]
    },
    {
      "name": "body 2_Material.003_0",
      "primitives": [
        {
          "attributes": {
            "NORMAL": 45,
            "POSITION": 44,
            "TEXCOORD_0": 46
          },
          "indices": 47,
          "material": 5,
          "mode": 4
        }
      ]
    },
    {
      "name": "vent_Material.005_0",
      "primitives": [
        {
          "attributes": {
            "NORMAL": 49,
            "POSITION": 48,
            "TEXCOORD_0": 50
          },
          "indices": 51,
          "material": 6,
          "mode": 4
        }
      ]
    },
    {
      "name": "headlight trim_Material.002_0",
      "primitives": [
        {
          "attributes": {
            "NORMAL": 53,
            "POSITION": 52,
            "TEXCOORD_0": 54
          },
          "indices": 55,
          "material": 1,
          "mode": 4
        }
      ]
    },
    {
      "name": "headlights_Material.004_0",
      "primitives": [
        {
          "attributes": {
            "NORMAL": 57,
            "POSITION": 56,
            "TEXCOORD_0": 58
          },
          "indices": 59,
          "material": 7,
          "mode": 4
        }
      ]
    },
    {
      "name": "front chrome_Material.002_0",
      "primitives": [
        {
          "attributes": {
            "NORMAL": 61,
            "POSITION": 60,
            "TEXCOORD_0": 62
          },
          "indices": 63,
          "material": 1,
          "mode": 4
        }
      ]
    },
    {
      "name": "front chrome 2_Material.002_0",
      "primitives": [
        {
          "attributes": {
            "NORMAL": 65,
            "POSITION": 64,
            "TEXCOORD_0": 66
          },
          "indices": 67,
          "material": 1,
          "mode": 4
        }
      ]
    },
    {
      "name": "grill 2_Material.005_0",
      "primitives": [
        {
          "attributes": {
            "NORMAL": 69,
            "POSITION": 68,
            "TEXCOORD_0": 70
          },
          "indices": 71,
          "material": 6,
          "mode": 4
        }
      ]
    },
    {
      "name": "foglight base_Material.002_0",
      "primitives": [
        {
          "attributes": {
            "NORMAL": 73,
            "POSITION": 72,
            "TEXCOORD_0": 74
          },
          "indices": 75,
          "material": 1,
          "mode": 4
        }
      ]
    },
    {
      "name": "foglight _Material.004_0",
      "primitives": [
        {
          "attributes": {
            "NORMAL": 77,
            "POSITION": 76,
            "TEXCOORD_0": 78
          },
          "indices": 79,
          "material": 7,
          "mode": 4
        }
      ]
    },
    {
      "name": "grill 3_Material.005_0",
      "primitives": [
        {
          "attributes": {
            "NORMAL": 81,
            "POSITION": 80,
            "TEXCOORD_0": 82
          },
          "indices": 83,
          "material": 6,
          "mode": 4
        }
      ]
    },
    {
      "name": "body 3_Material_0",
      "primitives": [
        {
          "attributes": {
            "NORMAL": 85,
            "POSITION": 84,
            "TEXCOORD_0": 86
          },
          "indices": 87,
          "material": 0,
          "mode": 4
        }
      ]
    },
    {
      "name": "trunk chrome_Material.002_0",
      "primitives": [
        {
          "attributes": {
            "NORMAL": 89,
            "POSITION": 88,
            "TEXCOORD_0": 90
          },
          "indices": 91,
          "material": 1,
          "mode": 4
        }
      ]
    },
    {
      "name": "rear bumper_Material.002_0",
      "primitives": [
        {
          "attributes": {
            "NORMAL": 93,
            "POSITION": 92,
            "TEXCOORD_0": 94
          },
          "indices": 95,
          "material": 1,
          "mode": 4
        }
      ]
    },
    {
      "name": "taillight trim_Material.002_0",
      "primitives": [
        {
          "attributes": {
            "NORMAL": 97,
            "POSITION": 96,
            "TEXCOORD_0": 98
          },
          "indices": 99,
          "material": 1,
          "mode": 4
        }
      ]
    },
    {
      "name": "taillight_Material.008_0",
      "primitives": [
        {
          "attributes": {
            "NORMAL": 101,
            "POSITION": 100,
            "TEXCOORD_0": 102
          },
          "indices": 103,
          "material": 8,
          "mode": 4
        }
      ]
    },
    {
      "name": "mirror_Material.002_0",
      "primitives": [
        {
          "attributes": {
            "NORMAL": 105,
            "POSITION": 104,
            "TEXCOORD_0": 106
          },
          "indices": 107,
          "material": 1,
          "mode": 4
        }
      ]
    },
    {
      "name": "mirror glass_Material.001_0",
      "primitives": [
        {
          "attributes": {
            "NORMAL": 109,
            "POSITION": 108,
            "TEXCOORD_0": 110
          },
          "indices": 111,
          "material": 4,
          "mode": 4
        }
      ]
    },
    {
      "name": "side trim_Material.002_0",
      "primitives": [
        {
          "attributes": {
            "NORMAL": 113,
            "POSITION": 112,
            "TEXCOORD_0": 114
          },
          "indices": 115,
          "material": 1,
          "mode": 4
        }
      ]
    }
  ],
  "nodes": [
    {
      "children": [
        1
      ],
      "matrix": [
        0.003274981863796711,
        0.0,
        0.0,
        0.0,
        0.0,
        7.271920540833834e-19,
        -0.003274981863796711,
        0.0,
        0.0,
        0.003274981863796711,
        7.271920540833834e-19,
        0.0,
        0.0,
        0.0,
        0.0,
        1.0
      ],
      "name": "Sketchfab_model"
    },
    {
      "children": [
        2
      ],
      "matrix": [
        1.0,
        0.0,
        0.0,
        0.0,
        0.0,
        0.0,
        1.0,
        0.0,
        0.0,
        -1.0,
        0.0,
        0.0,
        0.0,
        0.0,
        0.0,
        1.0
      ],
      "name": "b02e07fbd6cd41d4866afebc3202091d.fbx"
    },
    {
      "children": [
        3,
        5,
        7,
        9,
        11,
        13,
        15,
        17,
        19,
        21,
        23,
        25,
        27,
        29,
        31,
        33,
        35,
        37,
        39,
        41,
        43,
        45,
        47,
        49,
        51,
        53,
        55,
        57,
        59
      ],
      "name": "RootNode"
    },
    {
      "children": [
        4
      ],
      "matrix": [
        100.0,
        0.0,
        0.0,
        0.0,
        0.0,
        -1.629206793918314e-05,
        -99.99999999999868,
        0.0,
        0.0,
        99.99999999999868,
        -1.629206793918314e-05,
        0.0,
        0.0,
        281.2386169433594,
        -402.4644775390625,
        1.0
      ],
      "name": "body"
    },
    {
      "mesh": 0,
      "name": "body_Material_0"
    },
    {
      "children": [
        6
      ],
      "matrix": [
        100.0,
        0.0,
        0.0,
        0.0,
        0.0,
        -1.629206793918314e-05,
        -99.99999999999868,
        0.0,
        0.0,
        99.99999999999868,
        -1.629206793918314e-05,
        0.0,
        0.0,
        281.2386169433594,
        -402.4644775390625,
        1.0
      ],
      "name": "body 2 trim"
    },
    {
      "mesh": 1,
      "name": "body 2 trim_Material.002_0"
    },
    {
      "children": [
        8
      ],
      "matrix": [
        100.0,
        0.0,
        0.0,
        0.0,
        0.0,
        -1.629206793918314e-05,
        -99.99999999999868,
        0.0,
        0.0,
        99.99999999999868,
        -1.629206793918314e-05,
        0.0,
        0.0,
        281.2386169433594,
        -413.7053527832031,
        1.0
      ],
      "name": "grill"
    },
    {
      "mesh": 2,
      "name": "grill_Material.006_0"
    },
    {
      "children": [
        10
      ],
      "matrix": [
        100.0,
        0.0,
        0.0,
        0.0,
        0.0,
        -1.629206793918314e-05,
        -99.99999999999868,
        0.0,
        0.0,
        99.99999999999868,
        -1.629206793918314e-05,
        0.0,
        0.0,
        281.2386169433594,
        -402.4644775390625,
        1.0
      ],
      "name": "grill trim"
    },
    {
      "mesh": 3,
      "name": "grill trim_Material.002_0"
    },
    {
      "children": [
        12
      ],
      "matrix": [
        100.0,
        0.0,
        0.0,
        0.0,
        0.0,
        -1.629206793918314e-05,
        -99.99999999999868,
        0.0,
        0.0,
        99.99999999999868,
        -1.629206793918314e-05,
        0.0,
        0.0,
        281.2386169433594,
        -402.4644775390625,
        1.0
      ],
      "name": "Interior"
    },
    {
      "mesh": 4,
      "name": "Interior_Material.007_0"
    },
    {
      "children": [
        14
      ],
      "matrix": [
        100.0,
        0.0,
        0.0,
        0.0,
        0.0,
        -1.629206793918314e-05,
        -99.99999999999868,
        0.0,
        0.0,
        99.99999999999868,
        -1.629206793918314e-05,
        0.0,
        0.0,
        281.2386169433594,
        -402.4644775390625,
        1.0
      ],
      "name": "soft top"
    },
    {
      "mesh": 5,
      "name": "soft top_Material_0"
    },
    {
      "children": [
        16
      ],
      "matrix": [
        100.0,
        0.0,
        0.0,
        0.0,
        0.0,
        -1.629206793918314e-05,
        -99.99999999999868,
        0.0,
        0.0,
        99.99999999999868,
        -1.629206793918314e-05,
        0.0,
        0.0,
        270.99188232421875,
        -404.6759033203125,
        1.0
      ],
      "name": "trim"
    },
    {
      "mesh": 6,
      "name": "trim_Material.002_0"
    },
    {
      "children": [
        18
      ],
      "matrix": [
        100.0,
        0.0,
        0.0,
        0.0,
        0.0,
        -1.629206793918314e-05,
        -99.99999999999868,
        0.0,
        0.0,
        99.99999999999868,
        -1.629206793918314e-05,
        0.0,
        0.0,
        281.2386169433594,
        -402.4644775390625,
        1.0
      ],
      "name": "Wiindsheild trim"
    },
    {
      "mesh": 7,
      "name": "Wiindsheild trim_Material.002_0"
    },
    {
      "children": [
        20
      ],
      "matrix": [
        100.0,
        0.0,
        0.0,
        0.0,
        0.0,
        -1.629206793918314e-05,
        -99.99999999999868,
        0.0,
        0.0,
        99.99999999999868,
        -1.629206793918314e-05,
        0.0,
        0.0,
        281.2386169433594,
        -402.4644775390625,
        1.0
      ],
      "name": "window trim"
    },
    {
      "mesh": 8,
      "name": "window trim_Material.002_0"
    },
    {
      "children": [
        22
      ],
      "matrix": [
        100.0,
        0.0,
        0.0,
        0.0,
        0.0,
        -1.629206793918314e-05,
        -99.99999999999868,
        0.0,
        0.0,
        99.99999999999868,
        -1.629206793918314e-05,
        0.0,
        0.0,
        281.2386169433594,
        -402.4644775390625,
        1.0
      ],
      "name": "windsheild"
    },
    {
      "mesh": 9,
      "name": "windsheild_Material.001_0"
    },
    {
      "children": [
        24
      ],
      "matrix": [
        100.0,
        0.0,
        0.0,
        0.0,
        0.0,
        -1.629206793918314e-05,
        -99.99999999999868,
        0.0,
        0.0,
        99.99999999999868,
        -1.629206793918314e-05,
        0.0,
        0.0,
        281.2386169433594,
        -402.4644775390625,
        1.0
      ],
      "name": "windows"
    },
    {
      "mesh": 10,
      "name": "windows_Material.001_0"
    },
    {
      "children": [
        26
      ],
      "matrix": [
        100.0,
        0.0,
        0.0,
        0.0,
        0.0,
        -1.629206793918314e-05,
        -99.99999999999868,
        0.0,
        0.0,
        99.99999999999868,
        -1.629206793918314e-05,
        0.0,
        0.0,
        281.2386169433594,
        -402.4644775390625,
        1.0
      ],
      "name": "body 2"
    },
    {
      "mesh": 11,
      "name": "body 2_Material.003_0"
    },
    {
      "children": [
        28
      ],
      "matrix": [
        100.0,
        0.0,
        0.0,
        0.0,
        0.0,
        -1.629206793918314e-05,
        -99.99999999999868,
        0.0,
        0.0,
        99.99999999999868,
        -1.629206793918314e-05,
        0.0,
        0.0,
        281.2386169433594,
        -402.4644775390625,
        1.0
      ],
      "name": "vent"
    },
    {
      "mesh": 12,
      "name": "vent_Material.005_0"
    },
    {
      "children": [
        30
      ],
      "matrix": [
        100.0,
        0.0,
        0.0,
        0.0,
        0.0,
        -1.629206793918314e-05,
        -99.99999999999868,
        0.0,
        0.0,
        99.99999999999868,
        -1.629206793918314e-05,
        0.0,
        0.0,
        281.2386169433594,
        -402.4644775390625,
        1.0
      ],
      "name": "headlight trim"
    },
    {
      "mesh": 13,
      "name": "headlight trim_Material.002_0"
    },
    {
      "children": [
        32
      ],
      "matrix": [
        100.0,
        0.0,
        0.0,
        0.0,
        0.0,
        -1.629206793918314e-05,
        -99.99999999999868,
        0.0,
        0.0,
        99.99999999999868,
        -1.629206793918314e-05,
        0.0,
        0.0,
        281.2386169433594,
        -402.4644775390625,
        1.0
      ],
      "name": "headlights"
    },
    {
      "mesh": 14,
      "name": "headlights_Material.004_0"
    },
    {
      "children": [
        34
      ],
      "matrix": [
        100.0,
        0.0,
        0.0,
        0.0,
        0.0,
        -1.629206793918314e-05,
        -99.99999999999868,
        0.0,
        0.0,
        99.99999999999868,
        -1.629206793918314e-05,
        0.0,
        0.0,
        281.2386169433594,
        -402.4644775390625,
        1.0
      ],
      "name": "front chrome"
    },
    {
      "mesh": 15,
      "name": "front chrome_Material.002_0"
    },
    {
      "children": [
        36
      ],
      "matrix": [
        100.0,
        0.0,
        0.0,
        0.0,
        0.0,
        -1.629206793918314e-05,
        -99.99999999999868,
        0.0,
        0.0,
        99.99999999999868,
        -1.629206793918314e-05,
        0.0,
        0.0,
        281.2386169433594,
        -402.4644775390625,
        1.0
      ],
      "name": "front chrome 2"
    },
    {
      "mesh": 16,
      "name": "front chrome 2_Material.002_0"
    },
    {
      "children": [
        38
      ],
      "matrix": [
        100.0,
        0.0,
        0.0,
        0.0,
        0.0,
        -1.629206793918314e-05,
        -99.99999999999868,
        0.0,
        0.0,
        99.99999999999868,
        -1.629206793918314e-05,
        0.0,
        0.0,
        281.2386169433594,
        -402.4644775390625,
        1.0
      ],
      "name": "grill 2"
    },
    {
      "mesh": 17,
      "name": "grill 2_Material.005_0"
    },
    {
      "children": [
        40
      ],
      "matrix": [
        100.0,
        0.0,
        0.0,
        0.0,
        0.0,
        -1.629206793918314e-05,
        -99.99999999999868,
        0.0,
        0.0,
        99.99999999999868,
        -1.629206793918314e-05,
        0.0,
        0.0,
        281.2386169433594,
        -402.4644775390625,
        1.0
      ],
      "name": "foglight base"
    },
    {
      "mesh": 18,
      "name": "foglight base_Material.002_0"
    },
    {
      "children": [
        42
      ],
      "matrix": [
        100.0,
        0.0,
        0.0,
        0.0,
        0.0,
        -1.629206793918314e-05,
        -99.99999999999868,
        0.0,
        0.0,
        99.99999999999868,
        -1.629206793918314e-05,
        0.0,
        0.0,
        281.2386169433594,
        -402.4644775390625,
        1.0
      ],
      "name": "foglight "
    },
    {
      "mesh": 19,
      "name": "foglight _Material.004_0"
    },
    {
      "children": [
        44
      ],
      "matrix": [
        100.0,
        0.0,
        0.0,
        0.0,
        0.0,
        -1.629206793918314e-05,
        -99.99999999999868,
        0.0,
        0.0,
        99.99999999999868,
        -1.629206793918314e-05,
        0.0,
        0.0,
        281.2386169433594,
        -402.4644775390625,
        1.0
      ],
      "name": "grill 3"
    },
    {
      "mesh": 20,
      "name": "grill 3_Material.005_0"
    },
    {
      "children": [
        46
      ],
      "matrix": [
        100.0,
        0.0,
        0.0,
        0.0,
        0.0,
        -1.629206793918314e-05,
        -99.99999999999868,
        0.0,
        0.0,
        99.99999999999868,
        -1.629206793918314e-05,
        0.0,
        0.0,
        281.2386169433594,
        -402.4644775390625,
        1.0
      ],
      "name": "body 3"
    },
    {
      "mesh": 21,
      "name": "body 3_Material_0"
    },
    {
      "children": [
        48
      ],
      "matrix": [
        100.0,
        0.0,
        0.0,
        0.0,
        0.0,
        -1.629206793918314e-05,
        -99.99999999999868,
        0.0,
        0.0,
        99.99999999999868,
        -1.629206793918314e-05,
        0.0,
        0.0,
        281.2386169433594,
        -402.4644775390625,
        1.0
      ],
      "name": "trunk chrome"
    },
    {
      "mesh": 22,
      "name": "trunk chrome_Material.002_0"
    },
    {
      "children": [
        50
      ],
      "matrix": [
        100.0,
        0.0,
        0.0,
        0.0,
        0.0,
        -1.629206793918314e-05,
        -99.99999999999868,
        0.0,
        0.0,
        99.99999999999868,
        -1.629206793918314e-05,
        0.0,
        0.0,
        281.2386169433594,
        -402.4644775390625,
        1.0
      ],
      "name": "rear bumper"
    },
    {
      "mesh": 23,
      "name": "rear bumper_Material.002_0"
    },
    {
      "children": [
        52
      ],
      "matrix": [
        100.0,
        0.0,
        0.0,
        0.0,
        0.0,
        -1.629206793918314e-05,
        -99.99999999999868,
        0.0,
        0.0,
        99.99999999999868,
        -1.629206793918314e-05,
        0.0,
        0.0,
        281.2386169433594,
        -402.4644775390625,
        1.0
      ],
      "name": "taillight trim"
    },
    {
      "mesh": 24,
      "name": "taillight trim_Material.002_0"
    },
    {
      "children": [
        54
      ],
      "matrix": [
        100.0,
        0.0,
        0.0,
        0.0,
        0.0,
        -1.629206793918314e-05,
        -99.99999999999868,
        0.0,
        0.0,
        99.99999999999868,
        -1.629206793918314e-05,
        0.0,
        0.0,
        281.2386169433594,
        -402.4644775390625,
        1.0
      ],
      "name": "taillight"
    },
    {
      "mesh": 25,
      "name": "taillight_Material.008_0"
    },
    {
      "children": [
        56
      ],
      "matrix": [
        -1.9223060052081222,
        -0.9697278045758859,
        -2.304779531109257,
        -0.0,
        -2.3888261788204814,
        -0.14679129965501916,
        2.054167198982233,
        -0.0,
        0.7388440427400143,
        -2.9976201915966034,
        0.6450036921156059,
        -0.0,
        218.14599609375,
        272.66351318359375,
        -595.4124755859375,
        1.0
      ],
      "name": "mirror"
    },
    {
      "mesh": 26,
      "name": "mirror_Material.002_0"
    },
    {
      "children": [
        58
      ],
      "matrix": [
        -1.9223060052081222,
        -0.9697278045758859,
        -2.304779531109257,
        -0.0,
        -2.3888261788204814,
        -0.14679129965501916,
        2.054167198982233,
        -0.0,
        0.7388440427400143,
        -2.9976201915966034,
        0.6450036921156059,
        -0.0,
        218.14599609375,
        272.66351318359375,
        -595.4124755859375,
        1.0
      ],
      "name": "mirror glass"
    },
    {
      "mesh": 27,
      "name": "mirror glass_Material.001_0"
    },
    {
      "children": [
        60
      ],
      "matrix": [
        100.0,
        0.0,
        0.0,
        0.0,
        0.0,
        -1.629206793918314e-05,
        -99.99999999999868,
        0.0,
        0.0,
        99.99999999999868,
        -1.629206793918314e-05,
        0.0,
        0.0,
        281.2386169433594,
        -402.4644775390625,
        1.0
      ],
      "name": "side trim"
    },
    {
      "mesh": 28,
      "name": "side trim_Material.002_0"
    }
  ],
  "scene": 0,
  "scenes": [
    {
      "name": "Sketchfab_Scene",
      "nodes": [
        0
      ]
    }
  ]
}
